<svg xmlns="http://www.w3.org/2000/svg" viewBox="0 0 128 128" style="enable-background:new 0 0 128 128" xml:space="preserve"><path style="fill:#3d3d3d" d="M125.357 47.009 98.41 29.424a5.777 5.777 0 0 0-4.396-.817 5.761 5.761 0 0 0-3.683 2.516l-5.226 8.014-.298-6.925c-.143-3.216-2.853-5.732-6.082-5.576l-32.148 1.375a5.764 5.764 0 0 0-4.046 1.893 5.795 5.795 0 0 0-1.53 4.189l.169 3.864-4.902-6.536a5.748 5.748 0 0 0-3.839-2.282 5.8 5.8 0 0 0-4.331 1.102L2.343 49.525a5.748 5.748 0 0 0-2.282 3.839 5.814 5.814 0 0 0 1.102 4.331l30.955 41.342a5.798 5.798 0 0 0 3.839 2.282c.285.039.571.052.843.052a5.861 5.861 0 0 0 3.488-1.154l12.125-9.078L75.6 90.14l15.16 9.895c.96.622 2.049.947 3.177.947.402 0 .804-.039 1.206-.117a5.762 5.762 0 0 0 3.683-2.529l28.231-43.248c1.75-2.697.998-6.316-1.7-8.079zM37.953 97.091a1.98 1.98 0 0 1-1.439.376 1.955 1.955 0 0 1-1.284-.765L4.275 55.36c-.311-.415-.441-.921-.363-1.439s.337-.973.752-1.284l25.767-19.283c.35-.259.752-.389 1.154-.389.597 0 1.18.272 1.569.778l8.313 11.101 1.751 40.849a5.806 5.806 0 0 0 3.294 4.993l-8.559 6.405zm19.958-10.076-6.899.298-1.88.078c-1.05.039-1.984-.791-2.023-1.867l-1.517-35.169-.285-6.873-.415-9.557a1.934 1.934 0 0 1 .506-1.401c.35-.376.83-.597 1.349-.622l32.148-1.388h.091c1.024 0 1.893.817 1.932 1.867l.532 12.358-16.394 25.119-2.256 3.463-.687 1.05a5.814 5.814 0 0 0-.623 5.096 5.803 5.803 0 0 0 2.321 2.983l.104.065 6.082 3.981-12.086.519zm65.89-34.054L95.57 96.209a1.945 1.945 0 0 1-2.684.571L82.2 89.803l-5.524-3.605-9.609-6.264-1.128-.739a1.947 1.947 0 0 1-.571-2.697l2.153-3.294 14.213-21.786 3.657-5.602 8.196-12.566a1.92 1.92 0 0 1 1.232-.843 2.01 2.01 0 0 1 1.465.272l26.948 17.585a1.96 1.96 0 0 1 .569 2.697zM20.384 64.03c.681-5.622 7.988-4.46 7.988-4.46s.618-7.372 6.233-6.686c9.286 1.126 3.724 19.39 3.724 19.39s-19.071 1.042-17.945-8.244zm-5.815-5.672s2.225-7.306-1.489-7.756c-2.246-.274-2.493 2.675-2.493 2.675s-2.923-.465-3.195 1.784c-.451 3.714 7.177 3.297 7.177 3.297zm48.94-11.934S49.633 57.049 55.94 62.831c2.806 2.576 5.92.47 7.366-.815-.245 1.658-.872 4.223-2.537 5.837l.056 1.305 7.309-.321-.056-1.305c-1.792-1.454-2.643-3.956-3.03-5.59 1.57 1.163 4.839 2.981 7.405.174 5.793-6.296-8.944-15.692-8.944-15.692zm-7.638-5.881c-1.026 1.123-2.334.396-2.962-.07.155.654.495 1.654 1.212 2.236l.022.522-2.924.128-.022-.522c.666-.646.917-1.672 1.015-2.335-.579.514-1.824 1.356-2.947.326-2.523-2.313 3.028-6.563 3.028-6.563s5.895 3.759 3.578 6.278zm46.193 31.842c-1.508 2.311-4.771 2.87-7.271 1.239-1.385-.903-2.25-2.291-2.482-3.731-.492 1.501-.88 3.455-.401 5.219l-.698 1.076-6.086-3.96.708-1.086c1.802-.267 3.435-1.401 4.615-2.46-1.411.363-3.026.12-4.411-.772-2.51-1.641-3.311-4.837-1.793-7.158 1.508-2.311 4.761-2.86 7.261-1.229.368.246.706.522.994.827-.275-1.25-.076-2.563.642-3.669 1.518-2.321 4.761-2.87 7.271-1.239 2.5 1.631 3.311 4.837 1.803 7.148a4.761 4.761 0 0 1-3.001 2.04.204.204 0 0 1-.111.029c.04.011.07.021.11.042.36.135.709.321 1.048.537 2.499 1.63 3.31 4.836 1.802 7.147zM99.655 43.55c-.603.924-1.908 1.148-2.908.496a2.221 2.221 0 0 1-.993-1.492c-.197.6-.352 1.382-.161 2.088l-.279.43-2.434-1.584.283-.434c.721-.107 1.374-.56 1.846-.984a2.245 2.245 0 0 1-1.764-.309c-1.004-.656-1.325-1.935-.717-2.863.603-.924 1.904-1.144 2.904-.492.147.098.283.209.397.331-.11-.5-.031-1.025.257-1.468.607-.928 1.904-1.148 2.908-.496 1 .652 1.325 1.935.721 2.859-.283.43-.713.71-1.201.816a.072.072 0 0 1-.044.011 2.215 2.215 0 0 1 .463.232c1 .653 1.325 1.935.722 2.859zM89.309 85.851c.603-.924 1.908-1.148 2.908-.496.554.361.9.916.993 1.492.197-.6.352-1.382.161-2.088l.279-.43 2.434 1.584-.283.434c-.721.107-1.374.56-1.846.984a2.245 2.245 0 0 1 1.764.309c1.004.656 1.324 1.935.717 2.863-.603.924-1.904 1.144-2.904.492a2.258 2.258 0 0 1-.397-.331c.11.5.031 1.025-.257 1.468-.607.928-1.904 1.148-2.908.496-1-.652-1.325-1.935-.721-2.859.283-.43.713-.71 1.201-.816a.072.072 0 0 1 .044-.011 2.215 2.215 0 0 1-.463-.232c-1.001-.653-1.325-1.935-.722-2.859z"/></svg>